HIERARCHY
ROOT Hips
{
	OFFSET 0.000000 100.481300 0.000000
	CHANNELS 6 Xposition Yposition Zposition Xrotation Yrotation Zrotation 
	JOINT Spine
	{
		OFFSET -0.279200 12.230698 -2.892100
		CHANNELS 3 Xrotation Yrotation Zrotation
		JOINT Spine1
		{
			OFFSET -0.232667 10.192268 -1.242267
			CHANNELS 3 Xrotation Yrotation Zrotation
			JOINT Spine1_split
			{
				OFFSET -0.232667 10.192268 -1.242267
				CHANNELS 3 Xrotation Yrotation Zrotation
				JOINT Spine2
				{
					OFFSET -0.232667 10.192268 -1.242267
					CHANNELS 3 Xrotation Yrotation Zrotation
					JOINT Neck
					{
						OFFSET -0.418800 17.814194 8.416900
						CHANNELS 3 Xrotation Yrotation Zrotation
						JOINT Head
						{
							OFFSET 0.000000 7.031097 3.806800
							CHANNELS 3 Xrotation Yrotation Zrotation
							JOINT HeadTop_End
							{
								OFFSET 0.000000 24.646606 12.978600
								CHANNELS 3 Xrotation Yrotation Zrotation
								End Site
								{
									OFFSET 0.000000 0.000000 0.000000
								}
							}
						}
					}
					JOINT LeftShoulder
					{
						OFFSET 8.476499 7.247704 -3.868750
						CHANNELS 3 Xrotation Yrotation Zrotation
						JOINT LeftShoulder_split
						{
							OFFSET 8.476499 7.247704 -3.868750
							CHANNELS 3 Xrotation Yrotation Zrotation
							JOINT LeftArm
							{
								OFFSET 9.308998 -2.777710 0.208600
								CHANNELS 3 Xrotation Yrotation Zrotation
								JOINT LeftForeArm
								{
									OFFSET 29.972298 0.000000 0.000000
									CHANNELS 3 Xrotation Yrotation Zrotation
									JOINT LeftHand
									{
										OFFSET 26.026505 0.000000 0.000000
										CHANNELS 3 Xrotation Yrotation Zrotation
										JOINT LeftHandThumb1
										{
											OFFSET 12.240501 -7.147949 9.207150
											CHANNELS 3 Xrotation Yrotation Zrotation
											JOINT LeftHandThumb2
											{
												OFFSET 4.138618 -2.389435 2.389433
												CHANNELS 3 Xrotation Yrotation Zrotation
												JOINT LeftHandThumb3
												{
													OFFSET 2.726913 -1.574387 1.574386
													CHANNELS 3 Xrotation Yrotation Zrotation
													JOINT LeftHandThumb4
													{
														OFFSET 3.941010 -2.275345 2.275342
														CHANNELS 3 Xrotation Yrotation Zrotation
														End Site
														{
															OFFSET 0.000000 0.000000 0.000000
														}
													}
												}
											}
										}
										JOINT LeftHandIndex1
										{
											OFFSET 24.424698 -1.985611 5.953459
											CHANNELS 3 Xrotation Yrotation Zrotation
											JOINT LeftHandIndex2
											{
												OFFSET 6.426697 0.000000 0.000000
												CHANNELS 3 Xrotation Yrotation Zrotation
												JOINT LeftHandIndex3
												{
													OFFSET 5.337898 0.000000 0.000000
													CHANNELS 3 Xrotation Yrotation Zrotation
													JOINT LeftHandIndex4
													{
														OFFSET 4.409401 0.000000 0.000000
														CHANNELS 3 Xrotation Yrotation Zrotation
														End Site
														{
															OFFSET 0.000000 0.000000 0.000000
														}
													}
												}
											}
										}
										JOINT LeftHandMiddle1
										{
											OFFSET 23.810104 0.000000 0.000000
											CHANNELS 3 Xrotation Yrotation Zrotation
											JOINT LeftHandMiddle2
											{
												OFFSET 7.176498 0.000000 0.000000
												CHANNELS 3 Xrotation Yrotation Zrotation
												JOINT LeftHandMiddle3
												{
													OFFSET 6.774902 0.000000 0.000000
													CHANNELS 3 Xrotation Yrotation Zrotation
													JOINT LeftHandMiddle4
													{
														OFFSET 5.403328 0.000000 0.000000
														CHANNELS 3 Xrotation Yrotation Zrotation
														End Site
														{
															OFFSET 0.000000 0.000000 0.000000
														}
													}
												}
											}
										}
										JOINT LeftHandRing1
										{
											OFFSET 22.908401 -0.839279 -6.020567
											CHANNELS 3 Xrotation Yrotation Zrotation
											JOINT LeftHandRing2
											{
												OFFSET 6.337502 0.000000 0.000000
												CHANNELS 3 Xrotation Yrotation Zrotation
												JOINT LeftHandRing3
												{
													OFFSET 5.779297 0.000000 0.000000
													CHANNELS 3 Xrotation Yrotation Zrotation
													JOINT LeftHandRing4
													{
														OFFSET 4.965698 0.000000 0.000000
														CHANNELS 3 Xrotation Yrotation Zrotation
														End Site
														{
															OFFSET 0.000000 0.000000 0.000000
														}
													}
												}
											}
										}
										JOINT LeftHandPinky1
										{
											OFFSET 20.037003 -1.530319 -10.950146
											CHANNELS 3 Xrotation Yrotation Zrotation
											JOINT LeftHandPinky2
											{
												OFFSET 5.254700 0.000000 0.000000
												CHANNELS 3 Xrotation Yrotation Zrotation
												JOINT LeftHandPinky3
												{
													OFFSET 4.810204 0.000000 0.000000
													CHANNELS 3 Xrotation Yrotation Zrotation
													JOINT LeftHandPinky4
													{
														OFFSET 3.647202 0.000000 0.000000
														CHANNELS 3 Xrotation Yrotation Zrotation
														End Site
														{
															OFFSET 0.000000 0.000000 0.000000
														}
													}
												}
											}
										}
									}
								}
							}
						}
					}
					JOINT RightShoulder
					{
						OFFSET -7.570500 7.247704 -3.868750
						CHANNELS 3 Xrotation Yrotation Zrotation
						JOINT RightShoulder_split
						{
							OFFSET -7.570500 7.247704 -3.868750
							CHANNELS 3 Xrotation Yrotation Zrotation
							JOINT RightArm
							{
								OFFSET -9.308998 -2.777710 0.208500
								CHANNELS 3 Xrotation Yrotation Zrotation
								JOINT RightForeArm
								{
									OFFSET -29.972300 0.000000 0.000000
									CHANNELS 3 Xrotation Yrotation Zrotation
									JOINT RightHand
									{
										OFFSET -26.026505 0.000000 0.000000
										CHANNELS 3 Xrotation Yrotation Zrotation
										JOINT RightHandThumb1
										{
											OFFSET -12.240601 -7.148026 9.207092
											CHANNELS 3 Xrotation Yrotation Zrotation
											JOINT RightHandThumb2
											{
												OFFSET -4.138618 -2.389435 2.389433
												CHANNELS 3 Xrotation Yrotation Zrotation
												JOINT RightHandThumb3
												{
													OFFSET -2.726974 -1.574417 1.574421
													CHANNELS 3 Xrotation Yrotation Zrotation
													JOINT RightHandThumb4
													{
														OFFSET -3.941010 -2.275345 2.275343
														CHANNELS 3 Xrotation Yrotation Zrotation
														End Site
														{
															OFFSET 0.000000 0.000000 0.000000
														}
													}
												}
											}
										}
										JOINT RightHandIndex1
										{
											OFFSET -24.424698 -1.985657 5.953444
											CHANNELS 3 Xrotation Yrotation Zrotation
											JOINT RightHandIndex2
											{
												OFFSET -6.426697 0.000000 0.000000
												CHANNELS 3 Xrotation Yrotation Zrotation
												JOINT RightHandIndex3
												{
													OFFSET -5.337898 0.000000 0.000000
													CHANNELS 3 Xrotation Yrotation Zrotation
													JOINT RightHandIndex4
													{
														OFFSET -4.409401 0.000000 0.000000
														CHANNELS 3 Xrotation Yrotation Zrotation
														End Site
														{
															OFFSET 0.000000 0.000000 0.000000
														}
													}
												}
											}
										}
										JOINT RightHandMiddle1
										{
											OFFSET -23.810097 0.000000 0.000000
											CHANNELS 3 Xrotation Yrotation Zrotation
											JOINT RightHandMiddle2
											{
												OFFSET -7.176498 0.000000 0.000000
												CHANNELS 3 Xrotation Yrotation Zrotation
												JOINT RightHandMiddle3
												{
													OFFSET -6.774902 0.000000 0.000000
													CHANNELS 3 Xrotation Yrotation Zrotation
													JOINT RightHandMiddle4
													{
														OFFSET -5.403328 0.000000 0.000000
														CHANNELS 3 Xrotation Yrotation Zrotation
														End Site
														{
															OFFSET 0.000000 0.000000 0.000000
														}
													}
												}
											}
										}
										JOINT RightHandRing1
										{
											OFFSET -22.908302 -0.839325 -6.020576
											CHANNELS 3 Xrotation Yrotation Zrotation
											JOINT RightHandRing2
											{
												OFFSET -6.337502 0.000000 0.000000
												CHANNELS 3 Xrotation Yrotation Zrotation
												JOINT RightHandRing3
												{
													OFFSET -5.779297 0.000000 0.000000
													CHANNELS 3 Xrotation Yrotation Zrotation
													JOINT RightHandRing4
													{
														OFFSET -4.965698 0.000000 0.000000
														CHANNELS 3 Xrotation Yrotation Zrotation
														End Site
														{
															OFFSET 0.000000 0.000000 0.000000
														}
													}
												}
											}
										}
										JOINT RightHandPinky1
										{
											OFFSET -20.037003 -1.530334 -10.950259
											CHANNELS 3 Xrotation Yrotation Zrotation
											JOINT RightHandPinky2
											{
												OFFSET -5.254700 0.000000 0.000000
												CHANNELS 3 Xrotation Yrotation Zrotation
												JOINT RightHandPinky3
												{
													OFFSET -4.810204 0.000000 0.000000
													CHANNELS 3 Xrotation Yrotation Zrotation
													JOINT RightHandPinky4
													{
														OFFSET -3.647202 0.000000 0.000000
														CHANNELS 3 Xrotation Yrotation Zrotation
														End Site
														{
															OFFSET 0.000000 0.000000 0.000000
														}
													}
												}
											}
										}
									}
								}
							}
						}
					}
				}
			}
		}
	}
	JOINT LeftUpLeg
	{
		OFFSET 15.427100 -6.655098 0.678600
		CHANNELS 3 Xrotation Yrotation Zrotation
		JOINT LeftLeg
		{
			OFFSET 4.081073 -39.591068 13.024000
			CHANNELS 3 Xrotation Yrotation Zrotation
			JOINT LeftFoot
			{
				OFFSET -4.081074 -37.707932 -15.979700
				CHANNELS 3 Xrotation Yrotation Zrotation
				JOINT LeftToeBase
				{
					OFFSET 5.346399 -15.068900 20.645000
					CHANNELS 3 Xrotation Yrotation Zrotation
					JOINT LeftToe_End
					{
						OFFSET 2.754700 0.931300 11.300900
						CHANNELS 3 Xrotation Yrotation Zrotation
						End Site
						{
							OFFSET 0.000000 0.000000 0.000000
						}
					}
				}
			}
		}
	}
	JOINT RightUpLeg
	{
		OFFSET -15.569500 -6.655098 0.678600
		CHANNELS 3 Xrotation Yrotation Zrotation
		JOINT RightLeg
		{
			OFFSET -4.081825 -39.591045 13.023800
			CHANNELS 3 Xrotation Yrotation Zrotation
			JOINT RightFoot
			{
				OFFSET 4.081824 -37.707954 -15.979600
				CHANNELS 3 Xrotation Yrotation Zrotation
				JOINT RightToeBase
				{
					OFFSET -5.346400 -15.068900 20.645000
					CHANNELS 3 Xrotation Yrotation Zrotation
					JOINT RightToe_End
					{
						OFFSET -2.754700 0.931300 11.300900
						CHANNELS 3 Xrotation Yrotation Zrotation
						End Site
						{
							OFFSET 0.000000 0.000000 0.000000
						}
					}
				}
			}
		}
	}
}
MOTION
Frames: 5
Frame Time: 0.016667
1.026959 96.172874 -2.170952 2.912723 -28.996731 0.976968 7.837295 -0.326203 -2.471952 1.099252 -0.880569 2.383464 0.000000 0.000000 0.000000 1.108680 -0.590455 2.446366 -3.842072 18.019060 -6.496395 -6.332477 13.021551 0.301482 -0.000000 0.000000 0.000000 -0.057392 -8.759444 -0.061010 0.000000 0.000000 0.000000 -55.249755 0.330150 -41.449905 11.585984 -65.829554 13.007195 -50.191170 12.353355 4.611965 17.542472 -5.723979 -12.930208 10.850485 26.127722 8.644823 20.926970 51.115865 0.218779 -0.000001 -0.000000 -0.000001 13.974939 1.202167 -55.004326 0.370811 1.161727 -65.441880 1.983332 2.148287 -57.646339 0.000000 0.000000 0.000000 7.504727 1.174499 -63.778510 1.807858 1.475681 -64.567916 0.130368 -0.912273 -43.272513 0.000000 0.000001 -0.000000 8.574327 2.179148 -75.148999 -0.207623 1.009275 -57.855063 0.443123 1.742162 -53.581280 0.000001 -0.000002 -0.000001 10.030088 13.637046 -84.750244 0.877108 0.062322 -64.595517 1.141270 1.253118 -55.016300 0.000000 -0.000000 -0.000000 4.849289 7.760148 5.560446 0.000000 0.000000 0.000000 -0.933505 -2.176869 61.845655 11.299277 18.943436 -3.987518 -0.459216 6.620150 5.830131 15.788512 -2.734456 -17.205890 -2.198309 -31.113557 7.361261 -6.566800 -4.138113 2.407560 -0.000000 -0.000002 -0.000002 2.374672 -3.640936 8.487431 -2.147348 -2.473144 18.673266 -1.903007 -4.807337 14.173851 -0.000002 0.000001 -0.000003 -1.990496 -5.687064 13.662141 0.282187 -5.088230 26.988307 -0.665800 -1.219822 16.125783 -0.000000 -0.000001 0.000001 -3.248698 -8.544119 11.772719 4.043117 -4.063248 33.263633 2.099115 -3.161143 15.593356 0.000000 0.000000 -0.000006 -6.473327 -11.333580 23.262793 10.715339 -2.558940 34.822859 6.414160 -3.079528 15.311011 0.000000 0.000000 0.000001 -13.781155 18.267737 13.063094 14.409864 11.475426 -1.668999 -2.229707 -2.509538 -7.542705 -0.131852 -0.014305 -0.311712 -0.000000 0.000000 0.000000 -8.431165 -1.525379 -8.449445 11.008288 9.446783 0.847146 -5.766885 -0.831638 6.905349 -1.288155 -0.019888 0.149891 -0.000000 0.000002 0.000000 
1.095853 96.073013 -2.291463 2.958366 -28.868952 0.961440 7.803640 -0.325880 -2.481549 1.074050 -0.871347 2.364664 0.000000 0.000000 0.000000 1.083490 -0.588033 2.427853 -3.746776 18.050074 -6.586955 -6.429086 13.000712 0.448107 -0.000000 0.000000 -0.000000 -0.004174 -8.315556 -0.161324 0.000000 0.000000 0.000000 -55.335259 0.717922 -41.094820 10.897166 -65.775418 12.310816 -50.186143 12.360836 4.470031 17.542477 -5.723990 -12.930211 10.824642 26.057633 8.641519 21.008731 51.257455 0.185770 0.000001 0.000001 -0.000001 13.985131 1.290457 -55.047370 0.371067 1.161929 -65.457528 1.983345 2.148299 -57.646312 0.000001 -0.000000 0.000002 7.465921 1.197224 -63.754714 1.806387 1.476414 -64.514231 0.129865 -0.913210 -43.213285 -0.000000 0.000000 0.000000 8.571885 2.201339 -75.001283 -0.208874 1.005546 -57.694540 0.442393 1.741624 -53.532216 0.000000 -0.000000 0.000001 9.971793 13.637630 -84.708375 0.873402 0.061182 -64.420760 1.142994 1.253271 -55.084875 -0.000000 0.000000 0.000001 4.851985 7.811879 5.709651 0.000000 0.000000 0.000000 -0.844154 -2.132276 61.674621 11.420389 18.937666 -4.006092 -0.452338 6.527042 5.826801 15.788510 -2.734456 -17.205889 -2.106371 -31.245657 7.373556 -6.447860 -4.383488 2.353846 -0.000002 -0.000003 0.000000 2.374295 -3.644130 8.645110 -2.147462 -2.473285 18.952868 -1.903164 -4.809006 14.453389 -0.000001 0.000000 0.000000 -1.989616 -5.689714 13.819797 0.282329 -5.090152 27.268000 -0.665304 -1.219980 16.405406 -0.000001 0.000000 0.000002 -3.249578 -8.547459 11.930094 4.042383 -4.063374 33.543196 2.100193 -3.161188 15.873030 -0.000000 -0.000000 0.000000 -6.473367 -11.335250 23.420401 10.719493 -2.558900 35.102722 6.414184 -3.079649 15.590592 -0.000000 -0.000000 -0.000001 -14.120509 18.224852 13.240011 14.789656 11.972105 -1.651161 -2.332526 -3.171536 -7.649130 -0.131847 -0.014307 -0.311712 -0.000000 0.000000 -0.000000 -8.650399 -1.530023 -8.445259 11.295042 9.260378 0.808724 -5.884911 -0.838174 6.926276 -1.297531 -0.018811 0.101841 0.000000 0.000000 0.000000 
1.175917 95.972992 -2.402245 3.001703 -28.719818 0.935437 7.766597 -0.317946 -2.479161 1.051471 -0.856363 2.346641 0.000000 0.000000 0.000000 1.060735 -0.578902 2.409568 -4.035129 18.103346 -6.236031 -6.261313 13.166569 0.315301 -0.000000 0.000000 -0.000000 -0.095207 -7.833567 -0.261093 0.000000 0.000000 0.000000 -55.289067 1.044020 -40.597552 10.451569 -65.790383 11.849370 -50.183828 12.334681 4.429930 17.542468 -5.723997 -12.930189 10.824653 26.057669 8.641517 21.008723 51.257373 0.185756 0.000001 0.000002 0.000002 13.985150 1.290555 -55.047343 0.371056 1.161938 -65.457466 1.983366 2.148280 -57.646353 -0.000000 0.000001 0.000001 7.465878 1.197210 -63.754714 1.806407 1.476406 -64.514183 0.129854 -0.913216 -43.213159 -0.000000 0.000000 0.000000 8.571869 2.201313 -75.001324 -0.208873 1.005571 -57.694594 0.442368 1.741605 -53.532243 0.000000 0.000001 -0.000002 9.971797 13.637601 -84.708436 0.873406 0.061182 -64.421579 1.142990 1.253272 -55.084851 -0.000000 -0.000000 -0.000001 4.852103 7.875474 5.834439 0.000000 0.000000 0.000000 -0.731461 -2.101497 61.529985 11.542491 18.958857 -4.028587 -0.441497 6.372628 5.804650 15.788512 -2.734456 -17.205890 -2.008221 -31.386396 7.386904 -6.321373 -4.645009 2.297051 0.000001 -0.000003 0.000000 2.373891 -3.647528 8.813121 -2.147531 -2.473422 19.250784 -1.903372 -4.810732 14.751163 0.000000 0.000000 -0.000001 -1.988693 -5.692531 13.987952 0.282494 -5.092160 27.566008 -0.664722 -1.220165 16.703366 -0.000000 -0.000000 -0.000001 -3.250511 -8.551005 12.097784 4.041627 -4.063504 33.840876 2.101356 -3.161260 16.171038 0.000001 -0.000000 0.000000 -6.473475 -11.337006 23.588157 10.719570 -2.559005 35.400720 6.414233 -3.079781 15.888540 -0.000000 -0.000000 -0.000003 -14.471767 18.209850 13.420074 15.179278 12.468223 -1.631334 -2.448273 -3.884085 -7.746970 -0.131845 -0.014308 -0.311710 -0.000000 -0.000000 -0.000000 -8.850985 -1.595263 -8.428484 11.570591 9.049538 0.729648 -6.008291 -0.831425 6.994719 -1.322979 -0.015835 -0.028570 0.000000 -0.000001 -0.000000 
1.274731 95.843994 -2.494439 3.034979 -28.510839 0.872075 7.721233 -0.294337 -2.437513 1.037692 -0.825892 2.332715 0.000000 0.000000 0.000000 1.046382 -0.551331 2.393829 -4.158290 18.277617 -6.094375 -6.212595 13.365643 0.304791 0.000000 0.000000 -0.000000 -0.122211 -7.332433 -0.371028 0.000000 0.000000 0.000000 -55.212944 1.531648 -40.105604 9.829974 -65.922602 11.210640 -50.174587 12.301551 4.331366 17.542472 -5.723984 -12.930209 10.824831 26.058111 8.641549 21.008531 51.257004 0.185828 -0.000002 0.000003 -0.000000 13.985200 1.291135 -55.047090 0.371065 1.161938 -65.457002 1.983363 2.148283 -57.646346 0.000000 0.000000 -0.000000 7.465670 1.197345 -63.754516 1.806394 1.476429 -64.513964 0.129855 -0.913227 -43.212845 -0.000000 -0.000000 0.000000 8.571869 2.201199 -75.001611 -0.208899 1.005578 -57.694895 0.442400 1.741617 -53.532506 0.000000 -0.000000 0.000001 9.972027 13.637628 -84.708675 0.873455 0.061194 -64.423068 1.143005 1.253267 -55.085247 -0.000000 0.000000 -0.000002 4.844677 7.972236 5.880414 0.000000 0.000000 0.000000 -0.550613 -2.122581 61.472836 11.675100 19.081211 -4.071083 -0.420799 6.035000 5.735715 15.788515 -2.734455 -17.205885 -1.904627 -31.534570 7.401388 -6.188428 -4.920551 2.237860 0.000001 0.000000 -0.000002 2.373493 -3.651110 8.990283 -2.147580 -2.473561 19.564582 -1.903529 -4.812503 15.064749 -0.000001 -0.000000 0.000004 -1.987684 -5.695488 14.164830 0.282659 -5.094234 27.879649 -0.664089 -1.220345 17.016996 -0.000001 0.000000 -0.000000 -3.251467 -8.554748 12.274421 4.040897 -4.063625 34.154689 2.102610 -3.161314 16.484742 0.000001 0.000000 -0.000001 -6.473510 -11.338847 23.764962 10.719657 -2.559128 35.714369 6.414260 -3.079914 16.202225 0.000000 0.000000 0.000002 -14.984404 18.223705 13.441188 15.553567 11.682665 -1.665203 -2.486419 -3.393254 -7.459010 -0.131857 -0.014308 -0.311714 -0.000000 0.000000 0.000000 -9.035684 -1.706666 -8.398611 11.893945 8.789198 0.622092 -6.182802 -0.824967 7.113376 -1.360487 -0.015839 -0.220851 -0.000000 0.000001 -0.000000 
1.376483 95.725418 -2.578326 3.072906 -28.272617 0.806052 7.670738 -0.262541 -2.384278 1.024543 -0.785728 2.316041 0.000000 0.000000 0.000000 1.032501 -0.513467 2.374549 -4.234202 18.653812 -6.061268 -6.174076 13.712732 0.322351 0.000000 -0.000000 -0.000000 -0.121055 -6.796872 -0.488154 0.000000 0.000000 0.000000 -55.142945 2.029468 -39.651714 9.135381 -66.083829 10.497872 -50.169211 12.261310 4.242497 17.542477 -5.723982 -12.930206 10.825050 26.058744 8.641569 21.008229 51.256513 0.185964 -0.000002 0.000001 -0.000001 13.985278 1.291885 -55.046738 0.371048 1.161924 -65.456449 1.983360 2.148300 -57.646332 0.000000 -0.000001 -0.000000 7.465433 1.197509 -63.754311 1.806386 1.476430 -64.513732 0.129857 -0.913235 -43.212472 0.000000 0.000000 0.000000 8.571877 2.201103 -75.001938 -0.208864 1.005585 -57.695264 0.442378 1.741625 -53.532796 0.000000 -0.000002 0.000001 9.972342 13.637624 -84.708949 0.873482 0.061204 -64.424865 1.143026 1.253279 -55.085698 -0.000000 -0.000000 -0.000002 4.835493 8.084643 5.913527 0.000000 0.000000 0.000000 -0.348451 -2.133825 61.427115 11.793702 19.189415 -4.098404 -0.394891 5.634959 5.628133 15.788512 -2.734456 -17.205889 -1.796500 -31.689079 7.416691 -6.050118 -5.207898 2.176845 -0.000000 0.000000 0.000000 2.373090 -3.654844 9.174763 -2.147601 -2.473690 19.891481 -1.903712 -4.814286 15.391708 0.000000 0.000000 -0.000000 -1.986626 -5.698569 14.349264 0.282808 -5.096320 28.206516 -0.663391 -1.220559 17.343969 0.000001 0.000000 -0.000001 -3.252452 -8.558651 12.458468 4.040157 -4.063752 34.481664 2.103957 -3.161378 16.811855 0.000000 0.000000 -0.000003 -6.473601 -11.340741 23.949194 10.719764 -2.559239 36.041464 6.414315 -3.080055 16.529230 0.000000 0.000000 -0.000000 -15.439076 18.245792 13.579621 15.980155 11.715457 -1.656448 -2.601691 -3.773686 -7.401084 -0.131850 -0.014305 -0.311713 -0.000000 -0.000000 0.000000 -9.191281 -1.851122 -8.364093 12.180019 8.499674 0.492367 -6.349151 -0.811907 7.265300 -1.406018 -0.015860 -0.454341 0.000000 -0.000002 -0.000000 
